<?xml version="1.0" encoding="utf-8"?>
<!-- Generator: Adobe Illustrator 23.0.1, SVG Export Plug-In . SVG Version: 6.00 Build 0)  -->
<svg version="1.1" id="Layer_1" xmlns="http://www.w3.org/2000/svg" xmlns:xlink="http://www.w3.org/1999/xlink" x="0px" y="0px"
	 viewBox="0 0 1000 1000" style="enable-background:new 0 0 1000 1000;" xml:space="preserve">
<style type="text/css">
	.st0{fill:#FFFFFF;}
</style>
<g>
	<path class="st0" d="M116.8,540.52c-44.61-44.61-72.59-94.09-83.17-147.07c-9.38-46.98-4.39-95.84,14.44-141.3
		c19.49-47.05,53.65-89.4,96.17-119.23c44.14-30.97,94.55-47.33,145.78-47.33c69.41,0,136.46,30.36,193.91,87.81L494.53,184
		l10.61-10.61c64.21-64.21,137.8-98.15,212.81-98.15c50.37,0,99.32,15.39,141.55,44.49c41.26,28.44,73.1,67.7,92.09,113.53
		c19.42,46.88,23.92,98.1,13.01,148.14c-12.35,56.66-43.41,110.2-92.33,159.11L494.53,918.26L116.8,540.52z"/>
	<path class="st0" d="M717.99,90.25c47.3,0,93.29,14.47,132.99,41.84c19.15,13.2,36.32,29.07,51.03,47.16
		c14.81,18.22,26.82,38.32,35.7,59.75c18.24,44.04,22.47,92.18,12.22,139.22c-5.58,25.63-15.46,51.04-29.34,75.53
		c-14.99,26.43-34.81,52.06-58.93,76.17L494.53,897.04L127.4,529.92c-42.48-42.48-69.08-89.38-79.07-139.4
		c-8.8-44.06-4.1-89.92,13.59-132.62c9.25-22.34,21.84-43.43,37.41-62.68c15.46-19.12,33.47-35.94,53.52-50.01
		c41.6-29.19,89.03-44.61,137.16-44.61c31.07,0,61.82,6.48,91.38,19.26c32.44,14.02,63.36,35.61,91.92,64.16l21.21,21.21L515.74,184
		c61.33-61.32,131.25-93.75,202.24-93.76H717.99 M717.94,60.25c-72.53,0.01-151.05,30.18-223.41,102.55
		c-65.03-65.03-136.75-92.2-204.51-92.2c-215.16,0-390.31,274.06-183.83,480.54l388.34,388.34l388.34-388.34
		C1100.68,333.32,936.24,60.21,717.94,60.25L717.94,60.25z"/>
</g>
</svg>
