<svg xmlns="http://www.w3.org/2000/svg" viewBox="0 0 971.44 879.23"><defs><style>.a{fill:#fff;}</style></defs><title>heart outline</title><path class="a" d="M718,90.25c47.3,0,93.29,14.46,133,41.83a245,245,0,0,1,51,47.17A240.78,240.78,0,0,1,937.71,239a232.74,232.74,0,0,1,12.22,139.22,270,270,0,0,1-29.35,75.53c-15,26.42-34.81,52.05-58.92,76.17L494.53,897,127.4,529.92c-42.47-42.48-69.08-89.38-79.06-139.41-8.8-44.06-4.1-89.92,13.59-132.62a255,255,0,0,1,37.4-62.68,263.38,263.38,0,0,1,53.52-50c41.6-29.19,89-44.61,137.17-44.61a229.23,229.23,0,0,1,91.38,19.25c32.43,14,63.36,35.61,91.92,64.16l21.21,21.22L515.74,184C577.07,122.68,647,90.26,718,90.25h0m0-30c-72.53,0-151,30.17-223.41,102.54-65-65-136.75-92.2-204.51-92.2-215.17,0-390.32,274-183.83,480.54L494.53,939.47,882.87,551.13C1100.68,333.32,936.24,60.21,717.94,60.25Z" transform="translate(-13.99 -60.25)"/></svg>